<?xml version="1.0" encoding="UTF-8"?>
<svg version="1.1" xmlns="http://www.w3.org/2000/svg" width="372" height="372">
<path d="M0 0 C122.76 0 245.52 0 372 0 C372 122.76 372 245.52 372 372 C249.24 372 126.48 372 0 372 C0 249.24 0 126.48 0 0 Z " fill="#000000" transform="translate(0,0)"/>
<path d="M0 0 C1.04285156 0.3403125 2.08570313 0.680625 3.16015625 1.03125 C11.18723223 3.81021432 17.41685516 7.68039425 24 13 C24.63421875 13.47050781 25.2684375 13.94101562 25.921875 14.42578125 C38.90049778 24.51695814 46.97291948 40.95664502 49 57 C50.88775822 80.1955579 46.3148541 98.21642785 31.42700195 116.29394531 C30.33349372 117.57271822 29.17170456 118.79246994 28 120 C27.34 120 26.68 120 26 120 C26 120.66 26 121.32 26 122 C30.62 122 35.24 122 40 122 C40 162.59 40 203.18 40 245 C-19.07 245 -78.14 245 -139 245 C-139.66 249.62 -140.32 254.24 -141 259 C-141.60434871 261.35024499 -142.23260904 263.69782711 -143 266 C-144.1152002 266.2333606 -144.1152002 266.2333606 -145.25292969 266.47143555 C-152.62241594 268.01857345 -159.98341333 269.60141338 -167.33984375 271.20947266 C-170.56614286 271.90629473 -173.79696538 272.57206081 -177.03125 273.23046875 C-178.77124656 273.61009006 -180.51086175 273.99146573 -182.25 274.375 C-183.02698242 274.52283936 -183.80396484 274.67067871 -184.60449219 274.82299805 C-189.26883225 275.89895089 -191.46208127 277.28351447 -194.5703125 280.9453125 C-199.97899857 286.80383253 -207.12670483 287.31459497 -214.625 288.5 C-216.03174823 288.74981461 -217.43800717 289.00240105 -218.84375 289.2578125 C-224.64592816 290.28129827 -230.07635245 291 -236 291 C-236.99 281.1 -236.99 281.1 -238 271 C-234.31316493 270.18438179 -230.62559 269.37240724 -226.9375 268.5625 C-225.37999023 268.21735352 -225.37999023 268.21735352 -223.79101562 267.86523438 C-203.0288166 263.31732411 -203.0288166 263.31732411 -197.1875 266.5625 C-188.61989925 270.42631995 -176.48640607 265.80582726 -167.6875 263.9375 C-165.04688379 263.37723401 -162.40500656 262.82509983 -159.76171875 262.27734375 C-158.0286145 261.90984009 -158.0286145 261.90984009 -156.26049805 261.53491211 C-153.10610357 261.01740718 -150.18947496 260.90120694 -147 261 C-147.02320313 260.443125 -147.04640625 259.88625 -147.0703125 259.3125 C-147.08835937 258.549375 -147.10640625 257.78625 -147.125 257 C-147.14820313 256.2575 -147.17140625 255.515 -147.1953125 254.75 C-147 252 -147 252 -145 244 C-151.27 244 -157.54 244 -164 244 C-164 219.91 -164 195.82 -164 171 C-167.96 171 -171.92 171 -176 171 C-176.66 172.65 -177.32 174.3 -178 176 C-180.60391451 177.76394209 -181.80780296 178 -185 178 C-187.00133146 173.9285223 -188.99492997 169.85338541 -190.98144531 165.7746582 C-191.65836558 164.38755577 -192.33739036 163.00147832 -193.01855469 161.61645508 C-193.99708807 159.62586712 -194.9680025 157.63172001 -195.9375 155.63671875 C-196.24373291 155.01786301 -196.54996582 154.39900726 -196.86547852 153.76139832 C-198.21723348 150.96242724 -199 149.1537215 -199 146 C-191.803169 145.4988667 -186.57707348 146.31892287 -179.92578125 149.04296875 C-174.75154383 150.73547632 -169.40889054 150.8280162 -164 151 C-164 148.69 -164 146.38 -164 144 C-165.093125 143.95875 -166.18625 143.9175 -167.3125 143.875 C-177.74813483 142.51303002 -185.81639268 135.14546427 -193 128 C-193.55300781 127.48179687 -194.10601562 126.96359375 -194.67578125 126.4296875 C-205.31652531 115.47344968 -209.38686323 100.1342469 -209.29907227 85.36621094 C-208.90760148 70.07700851 -202.18442068 56.27653165 -191.59765625 45.40234375 C-178.64454189 33.42314776 -163.52479363 28.35611 -146.171875 28.76171875 C-132.99811691 29.36025789 -118.25448664 36.04720477 -108.6484375 45.12890625 C-106.76583611 47.26579266 -105.19238374 49.54079998 -103.5625 51.875 C-101.64353848 54.49136189 -100.67028786 55.78194161 -97.5625 56.79296875 C-95.33376883 57.03325383 -93.2359869 57.12675663 -91 57 C-90.9484375 56.319375 -90.896875 55.63875 -90.84375 54.9375 C-88.82712689 37.70453886 -78.55015279 23.27950512 -65.71484375 12.10546875 C-47.50736123 -2.01515439 -22.08782013 -8.33756376 0 0 Z " fill="#D2212B" transform="translate(250,41)"/>
<path d="M0 0 C0 32.34 0 64.68 0 98 C-14.33468068 89.8087539 -14.33468068 89.8087539 -21.2277832 84.72338867 C-35.19496828 74.78730584 -47.11680285 75.59992424 -64 76 C-64 58.18 -64 40.36 -64 22 C-59.7925 22.185625 -55.585 22.37125 -51.25 22.5625 C-33.17608279 22.58530359 -21.24221209 14.19863468 -7 4 C-1.1574445 0 -1.1574445 0 0 0 Z " fill="#D2202A" transform="translate(356,156)"/>
<path d="M0 0 C0.76183594 0.00563965 1.52367187 0.0112793 2.30859375 0.01708984 C12.17075012 0.23102408 20.49917418 3.96311751 27.44921875 11.12890625 C35.36188639 20.99482686 36.70378673 31.04083777 35.6875 43.3125 C34.11607251 53.0497382 27.42276796 60.59512803 19.6875 66.3125 C12.58129589 71.23217977 5.11335968 72.04863021 -3.3125 71.3125 C-13.43497117 69.44855034 -21.89618749 65.59350744 -28.3125 57.3125 C-34.60695407 46.39268305 -36.25855697 37.67654618 -34.3125 25.3125 C-33.13397928 21.55921916 -31.55036014 18.53550509 -29.3125 15.3125 C-28.879375 14.67054687 -28.44625 14.02859375 -28 13.3671875 C-21.27895598 4.54581722 -10.86408563 -0.08309506 0 0 Z " fill="#FEFBFB" transform="translate(227.3125,71.6875)"/>
<path d="M0 0 C5.58006585 3.34803951 9.61308683 9.18105898 11.82421875 15.26953125 C13.78307239 23.20219386 13.9954044 30.36476544 10.33984375 37.79296875 C5.47856769 45.80061008 -0.33918071 50.95445517 -9.36328125 53.41796875 C-18.21298809 55.37145959 -25.09054968 53.36231522 -33 49 C-39.27804406 44.36459829 -42.57163786 38.28508643 -45 31 C-45.80288853 20.57788933 -44.65963267 13.90174971 -38 5.8125 C-27.01515382 -5.72336597 -13.98251549 -6.61117289 0 0 Z " fill="#FEFAFA" transform="translate(116,101)"/>
<path d="M0 0 C1.578125 1.90625 1.578125 1.90625 3.25 4.5 C6.12934651 8.81595011 9.21439596 12.6803402 12.71484375 16.50390625 C14 18 14 18 14 19 C2.78 19 -8.44 19 -20 19 C-19.34 17.35 -18.68 15.7 -18 14 C-17.60683594 12.99582031 -17.21367187 11.99164063 -16.80859375 10.95703125 C-13.17728889 2.62882496 -13.17728889 2.62882496 -9.7109375 0.77734375 C-6.40994145 0.05155472 -3.37068798 0 0 0 Z " fill="#040000" transform="translate(168,144)"/>
<path d="M0 0 C0.99 0.66 1.98 1.32 3 2 C3.33427818 5.00850363 3.5325554 7.10053172 3 10 C1.3125 12.0625 1.3125 12.0625 -1 13 C-3.81900839 12.8624874 -5.45769347 12.35530428 -7.8125 10.8125 C-9.58260835 8.11075568 -9.39415803 6.15326426 -9 3 C-6.78229215 -0.69617975 -4.0271794 -0.41949785 0 0 Z " fill="#090101" transform="translate(272,261)"/>
<path d="M0 0 C2 2 2 2 2.25 5.5 C2 9 2 9 0 11 C-3.13704316 11.333728 -5.16554166 11.52849028 -7.875 9.8125 C-9.40659584 7.34492892 -9.42822025 5.85480169 -9 3 C-6.73157826 -0.65467947 -4.03373275 -0.4291205 0 0 Z " fill="#D52A33" transform="translate(222,117)"/>
<path d="M0 0 C3.5 0.25 3.5 0.25 5.5 2.25 C5.833728 5.38704316 6.02849028 7.41554166 4.3125 10.125 C1.84492892 11.65659584 0.35480169 11.67822025 -2.5 11.25 C-4.3125 10.125 -4.3125 10.125 -5.5 8.25 C-5.8125 5.1875 -5.8125 5.1875 -5.5 2.25 C-3.5 0.25 -3.5 0.25 0 0 Z " fill="#D62B35" transform="translate(240.5,113.75)"/>
<path d="M0 0 C2 2 2 2 2.3125 5.5 C2.1578125 7.2325 2.1578125 7.2325 2 9 C-1.23253796 11.15502531 -2.25150923 11.46856135 -6 11 C-7.875 9.9375 -7.875 9.9375 -9 8 C-8.8125 4.375 -8.8125 4.375 -8 1 C-5.23749964 -0.38125018 -3.05268901 -0.19079306 0 0 Z " fill="#D62B35" transform="translate(214,98)"/>
<path d="M0 0 C1.25 6.625 1.25 6.625 -1 10 C-5.05445642 10.43132515 -6.54970958 10.30019361 -10 8 C-10.39907251 4.87393202 -10.46880951 2.85488793 -8.9375 0.0625 C-5.87530347 -1.61676907 -3.30629059 -0.68621125 0 0 Z " fill="#D52932" transform="translate(247,94)"/>
<path d="M0 0 C1.38125018 2.76250036 1.19079306 4.94731099 1 8 C-1 10 -1 10 -3.9375 10.3125 C-7 10 -7 10 -8.875 8.8125 C-10.40659584 6.34492892 -10.42822025 4.85480169 -10 2 C-7.59587398 -2.24257532 -4.222762 -1.01659085 0 0 Z " fill="#D52A33" transform="translate(229,83)"/>
<path d="M0 0 C5.56818182 0.56818182 5.56818182 0.56818182 7 2 C7.1875 4.4375 7.1875 4.4375 7 7 C6.34 7.66 5.68 8.32 5 9 C1.375 8.625 1.375 8.625 -2 8 C-2.125 5.125 -2.125 5.125 -2 2 C-1.34 1.34 -0.68 0.68 0 0 Z " fill="#D7323C" transform="translate(84,118)"/>
<path d="M0 0 C3 0.125 3 0.125 4 1.125 C4.1875 4.0625 4.1875 4.0625 4 7.125 C3.34 7.785 2.68 8.445 2 9.125 C-1.29714793 8.79528521 -2.6226839 8.5023161 -5 6.125 C-4.27477017 0.17811542 -4.27477017 0.17811542 0 0 Z " fill="#D62E38" transform="translate(112,114.875)"/>
<path d="M0 0 C3.125 0.375 3.125 0.375 6 1 C6.625 3.3125 6.625 3.3125 7 6 C6.01 7.485 6.01 7.485 5 9 C2.5 9.3125 2.5 9.3125 0 9 C-2 7 -2 7 -2.25 4.5 C-2 2 -2 2 0 0 Z " fill="#D62E38" transform="translate(108,131)"/>
<path d="M0 0 C2.375 0.6875 2.375 0.6875 3.375 1.6875 C3.5625 4.125 3.5625 4.125 3.375 6.6875 C2.715 7.3475 2.055 8.0075 1.375 8.6875 C-1.75 8.3125 -1.75 8.3125 -4.625 7.6875 C-4.955 5.7075 -5.285 3.7275 -5.625 1.6875 C-2.625 -0.3125 -2.625 -0.3125 0 0 Z " fill="#D52932" transform="translate(93.625,134.3125)"/>
<path d="M0 0 C2.5 0.25 2.5 0.25 4.5 2.25 C4.125 5.375 4.125 5.375 3.5 8.25 C0.625 8.875 0.625 8.875 -2.5 9.25 C-4.5 7.25 -4.5 7.25 -4.75 4.75 C-4.40058445 1.25584452 -3.49415548 0.34941555 0 0 Z " fill="#D62C36" transform="translate(97.5,105.75)"/>
</svg>
